<?xml version="1.0" encoding="iso-8859-1"?>
<!-- Generator: Adobe Illustrator 19.0.0, SVG Export Plug-In . SVG Version: 6.00 Build 0)  -->
<svg version="1.1" id="Layer_1" xmlns="http://www.w3.org/2000/svg" xmlns:xlink="http://www.w3.org/1999/xlink" x="0px" y="0px"
	 viewBox="0 0 512 512" style="enable-background:new 0 0 512 512;" xml:space="preserve">
<path style="fill:#FFC855;" d="M414.897,176.552c-4.879,0-8.828-3.948-8.828-8.828c0-82.75-67.319-150.069-150.069-150.069
	S105.931,84.974,105.931,167.724c0,4.879-3.948,8.828-8.828,8.828c-4.879,0-8.828-3.948-8.828-8.828C88.276,75.242,163.518,0,256,0
	s167.724,75.242,167.724,167.724C423.724,172.604,419.776,176.552,414.897,176.552z"/>
<g>
	<path style="fill:#FAAF50;" d="M105.931,167.724c0-5.983,0.449-11.853,1.133-17.655H89.225c-0.61,5.805-0.949,11.691-0.949,17.655
		c0,4.879,3.948,8.828,8.828,8.828C101.983,176.552,105.931,172.604,105.931,167.724z"/>
	<path style="fill:#FAAF50;" d="M423.724,167.724c0-5.964-0.339-11.85-0.949-17.655h-17.839c0.684,5.802,1.133,11.672,1.133,17.655
		c0,4.879,3.948,8.828,8.828,8.828C419.776,176.552,423.724,172.604,423.724,167.724z"/>
</g>
<path style="fill:#C83C41;" d="M419.31,194.207H92.69c-7.313,0-13.241-5.929-13.241-13.241l0,0c0-7.313,5.929-13.241,13.241-13.241
	H419.31c7.313,0,13.241,5.929,13.241,13.241l0,0C432.552,188.278,426.623,194.207,419.31,194.207z"/>
<path style="fill:#E15050;" d="M97.103,194.207l24.459,293.51C122.707,501.442,134.18,512,147.954,512h216.093
	c13.773,0,25.248-10.558,26.391-24.284l24.459-293.51H97.103z"/>
<g>
	<path style="fill:#D24146;" d="M419.31,194.207h-220.69c-7.313,0-13.241-5.929-13.241-13.241l0,0
		c0-7.313,5.929-13.241,13.241-13.241h220.69c7.313,0,13.241,5.929,13.241,13.241l0,0
		C432.552,188.278,426.623,194.207,419.31,194.207z"/>
	<path style="fill:#D24146;" d="M351.503,316.559c-3.833-11.798-13.842-20.235-26.119-22.019l-27.896-4.053l-12.476-25.279
		c-5.49-11.125-16.607-18.036-29.013-18.036s-23.523,6.911-29.013,18.036l-12.476,25.279l-27.896,4.054
		c-0.565,0.082-1.121,0.193-1.676,0.303l-8.387-100.638H97.103l24.459,293.51C122.707,501.442,134.18,512,147.954,512h79.448
		c-13.773,0-25.247-10.558-26.391-24.284l-4.966-59.586c5.663,4.444,12.652,6.913,19.945,6.913c5.186,0,10.393-1.297,15.059-3.748
		L256,418.176l24.951,13.118c4.665,2.453,9.873,3.748,15.059,3.748c9.548,0,18.584-4.222,24.79-11.583
		c6.127-7.267,8.713-16.843,7.096-26.273l-4.766-27.784l20.186-19.677C352.201,341.067,355.338,328.358,351.503,316.559z"/>
</g>
<path style="fill:#FF6E6E;" d="M376.561,344.267c-0.242,0-0.491-0.009-0.742-0.034c-4.862-0.396-8.466-4.664-8.061-9.526
	l5.146-61.784c0.396-4.862,4.534-8.595,9.526-8.061c4.862,0.396,8.466,4.664,8.061,9.526l-5.146,61.784
	C384.966,340.785,381.103,344.267,376.561,344.267z"/>
<path style="fill:#FF8282;" d="M384.655,247.172c-0.242,0-0.491-0.009-0.741-0.034c-4.853-0.396-8.466-4.664-8.061-9.526
	l1.465-17.655c0.396-4.853,4.561-8.595,9.526-8.061c4.853,0.396,8.466,4.664,8.061,9.526l-1.465,17.655
	C393.06,243.681,389.198,247.172,384.655,247.172z"/>
<path style="fill:#FFE182;" d="M256,398.23l-33.167,17.437c-10.784,5.67-23.388-3.488-21.327-15.496l6.335-36.932l-26.833-26.155
	c-8.724-8.504-3.911-23.32,8.147-25.073l37.082-5.388l16.584-33.602c5.391-10.925,20.971-10.925,26.362,0l16.584,33.602
	l37.082,5.388c12.056,1.752,16.871,16.568,8.147,25.073l-26.833,26.155l6.335,36.932c2.059,12.008-10.545,21.165-21.327,15.496
	L256,398.23z"/>
<path style="fill:#FFD269;" d="M225.216,399.945l4.27-24.898c0.852-4.964-0.794-10.03-4.402-13.546l-18.09-17.633
	c-7.755-7.56-3.476-20.729,7.242-22.286l25-3.633c4.984-0.724,9.294-3.855,11.523-8.372l11.18-22.654
	c2.2-4.458,6.318-6.769,10.582-7.134l-3.34-6.767c-5.391-10.925-20.97-10.924-26.361,0l-16.584,33.602l-37.082,5.388
	c-12.056,1.752-16.871,16.567-8.147,25.071l26.833,26.156l-6.334,36.932c-2.059,12.008,10.545,21.164,21.327,15.495l6.873-3.614
	C226.393,409.257,224.364,404.909,225.216,399.945z"/>
<g>
</g>
<g>
</g>
<g>
</g>
<g>
</g>
<g>
</g>
<g>
</g>
<g>
</g>
<g>
</g>
<g>
</g>
<g>
</g>
<g>
</g>
<g>
</g>
<g>
</g>
<g>
</g>
<g>
</g>
</svg>
